<?xml version="1.0" encoding="UTF-8"?>
<svg width="1024px" height="1024px" viewBox="0 0 1024 1024" version="1.1" xmlns="http://www.w3.org/2000/svg" xmlns:xlink="http://www.w3.org/1999/xlink">
    <title>黑底 方形</title>
    <g id="黑底-方形" stroke="none" stroke-width="1" fill="none" fill-rule="evenodd">
        <rect fill="#17181E" x="0" y="0" width="1024" height="1024"></rect>
        <g id="编组-2" transform="translate(214.000000, 241.000000)" fill="#F7A600">
            <polygon id="路径备份-2" opacity="0.5" points="416.347006 25 320.205436 150.714267 223.652994 25 20 25 218.311662 283.965088 21.232615 541.676184 201.26337 541.676184 596.514719 25"></polygon>
            <polygon id="路径" points="396.347006 0 300.205436 125.714267 203.652994 0 2.02218929e-12 0 198.311662 258.965088 1.23261504 516.676184 181.26337 516.676184 576.514719 0"></polygon>
            <path d="M493.03,407.417 L504.385,422.244 L413.261,542.147 L392.552442,542.147088 L391.834,541.212 L493.03,407.417 Z M582.501,524.252 L596.205436,542.147088 L569.213,542.147 L582.501,524.252 Z M515.921,437.308 L527.901,452.952 L460.378,542.147 L436.247,542.147 L515.921,437.308 Z M539.5,468.099 L550.181,482.047 L504.279,542.147 L483.443,542.147 L539.5,468.099 Z M561.804,497.224 L572.233,510.844 L548.988,542.147 L527.494,542.147 L561.804,497.224 Z M469.98,377.317 L481.494,392.352 L380.281,526.17 L368.567,510.917 L469.98,377.317 Z M446.764,347 L458.42,362.22 L356.99,495.844 L345,480.232 L446.764,347 Z M423.689,316.867 L435.204,331.905 L333.423,465.158 L322.326,450.71 L423.689,316.867 Z" id="形状结合"></path>
        </g>
    </g>
</svg>